<svg version="1.1" viewBox="0.0 0.0 768.0 768.0" fill="none" stroke="none" stroke-linecap="square" stroke-miterlimit="10" xmlns:xlink="http://www.w3.org/1999/xlink" xmlns="http://www.w3.org/2000/svg"><clipPath id="g2a7a2911fb9_0_22.0"><path d="m0 0l768.0 0l0 768.0l-768.0 0l0 -768.0z" clip-rule="nonzero"/></clipPath><g clip-path="url(#g2a7a2911fb9_0_22.0)"><path fill="#000000" fill-opacity="0.0" d="m0 0l768.0 0l0 768.0l-768.0 0z" fill-rule="evenodd"/><path fill="#d0a624" d="m372.35703 422.87524c-5.7994385 22.012085 -5.5579224 94.50433 8.699158 119.744446c14.25705 25.240051 38.66275 26.413391 76.84323 31.696045c38.18048 5.282654 112.850464 6.163147 152.23969 0c39.38916 -6.163147 69.11316 -12.031982 84.09558 -36.97876c14.982361 -24.946716 8.215332 -92.744354 5.798645 -112.70175c-2.416687 -19.957397 -3.3831177 -4.107971 -20.298767 -7.0426636c-16.91565 -2.9346619 -37.214783 -9.391113 -81.19513 -10.565338c-43.980286 -1.1742554 -144.9896 0.87857056 -182.68665 3.519928c-37.697083 2.641327 -37.69632 -9.6839905 -43.495758 12.3280945z" fill-rule="evenodd"/><path fill="#f1c232" d="m599.3743 382.3748c-41.080566 -4.696045 -111.883606 -3.2294006 -149.33917 1.7599487c-37.455566 4.9893494 -69.35318 15.262299 -75.394135 28.176147c-6.0409546 12.913818 11.841888 39.915253 39.148438 49.306854c27.30655 9.391571 83.85217 8.510193 124.69083 7.042633c40.838684 -1.4675598 94.00159 -6.4564514 120.34131 -15.848022c26.339722 -9.391602 47.60492 -28.761871 37.69702 -40.501465c-9.907837 -11.7395935 -56.06372 -25.240082 -97.14429 -29.936096z" fill-rule="evenodd"/><path stroke="#f1c232" stroke-width="4.0" stroke-linejoin="round" stroke-linecap="butt" d="m599.3743 382.3748c-41.080566 -4.696045 -111.883606 -3.2294006 -149.33917 1.7599487c-37.455566 4.9893494 -69.35318 15.262299 -75.394135 28.176147c-6.0409546 12.913818 11.841888 39.915253 39.148438 49.306854c27.30655 9.391571 83.85217 8.510193 124.69083 7.042633c40.838684 -1.4675598 94.00159 -6.4564514 120.34131 -15.848022c26.339722 -9.391602 47.60492 -28.761871 37.69702 -40.501465c-9.907837 -11.7395935 -56.06372 -25.240082 -97.14429 -29.936096z" fill-rule="evenodd"/><path fill="#d0a624" d="m746.5241 290.2249c5.7994385 20.474457 5.5579224 87.90283 -8.699158 111.37979c-14.257019 23.47696 -38.66272 24.568329 -76.8432 29.481995c-38.18048 4.913666 -112.850464 5.732605 -152.23969 0c-39.38919 -5.732605 -69.11319 -11.191528 -84.09558 -34.39563c-14.982361 -23.204132 -8.215332 -86.26581 -5.7986755 -104.82913c2.416687 -18.563293 3.3831482 -3.8210144 20.298798 -6.5506897c16.91565 -2.7296448 37.214783 -8.735107 81.19507 -9.827301c43.980286 -1.0922241 144.98962 0.8171997 182.6867 3.2740479c37.697083 2.4568176 37.69629 -9.007538 43.495728 11.466919z" fill-rule="evenodd"/><path fill="#f1c232" d="m520.3425 252.55309c41.080627 -4.367981 111.88367 -3.0037994 149.33917 1.6370392c37.455566 4.640808 69.35321 14.196167 75.394165 26.207916c6.0409546 12.011749 -11.841919 37.127014 -39.148438 45.86258c-27.30658 8.735535 -83.85217 7.915741 -124.69086 6.5506897c-40.838684 -1.3650513 -94.001526 -6.0054626 -120.34125 -14.740997c-26.339722 -8.735535 -47.60495 -26.752747 -37.697083 -37.67227c9.907867 -10.919525 56.06372 -23.47696 97.14429 -27.844955z" fill-rule="evenodd"/><path stroke="#f1c232" stroke-width="4.0" stroke-linejoin="round" stroke-linecap="butt" d="m520.3425 252.55309c41.080627 -4.367981 111.88367 -3.0037994 149.33917 1.6370392c37.455566 4.640808 69.35321 14.196167 75.394165 26.207916c6.0409546 12.011749 -11.841919 37.127014 -39.148438 45.86258c-27.30658 8.735535 -83.85217 7.915741 -124.69086 6.5506897c-40.838684 -1.3650513 -94.001526 -6.0054626 -120.34125 -14.740997c-26.339722 -8.735535 -47.60495 -26.752747 -37.697083 -37.67227c9.907867 -10.919525 56.06372 -23.47696 97.14429 -27.844955z" fill-rule="evenodd"/><path fill="#d0a624" d="m541.809 552.00055c8.043579 30.529907 7.708618 131.07397 -12.06543 166.081c-19.774017 35.00708 -53.62378 36.6344 -106.578674 43.961304c-52.954895 7.3268433 -156.51935 8.547974 -211.15071 0c-54.631363 -8.548035 -95.85743 -16.687927 -116.63742 -51.288147c-20.779991 -34.60022 -11.394386 -128.633 -8.0425415 -156.31317c3.3518524 -27.680176 4.692276 -5.697571 28.15364 -9.767883c23.461365 -4.0702515 51.61554 -13.025085 112.61456 -14.653748c60.999023 -1.6286011 201.09515 1.2185669 253.37958 4.882019c52.284454 3.6634521 52.283356 -13.431335 60.326996 17.098633z" fill-rule="evenodd"/><path fill="#f1c232" d="m226.94449 495.82788c56.977234 -6.5131836 155.1784 -4.4790344 207.12787 2.4410095c51.949432 6.920044 96.19028 21.168243 104.56882 39.079254c8.378601 17.91101 -16.424255 55.360962 -54.297424 68.38678c-37.87317 13.025757 -116.299805 11.803345 -172.94153 9.767883c-56.64171 -2.0354614 -130.3766 -8.954895 -166.90881 -21.980652c-36.53221 -13.025757 -66.026276 -39.8916 -52.284424 -56.17401c13.741844 -16.282349 77.75827 -35.00705 134.7355 -41.520264z" fill-rule="evenodd"/><path stroke="#f1c232" stroke-width="4.0" stroke-linejoin="round" stroke-linecap="butt" d="m226.94449 495.82788c56.977234 -6.5131836 155.1784 -4.4790344 207.12787 2.4410095c51.949432 6.920044 96.19028 21.168243 104.56882 39.079254c8.378601 17.91101 -16.424255 55.360962 -54.297424 68.38678c-37.87317 13.025757 -116.299805 11.803345 -172.94153 9.767883c-56.64171 -2.0354614 -130.3766 -8.954895 -166.90881 -21.980652c-36.53221 -13.025757 -66.026276 -39.8916 -52.284424 -56.17401c13.741844 -16.282349 77.75827 -35.00705 134.7355 -41.520264z" fill-rule="evenodd"/><path fill="#d0a624" d="m22.853262 368.0195c-8.043594 28.397308 -7.708621 121.91794 12.065393 154.47958c19.774014 32.561707 53.623787 34.07538 106.57869 40.89044c52.954895 6.8150635 156.51935 7.9508667 211.15073 0c54.631348 -7.9509277 95.85742 -15.522217 116.63739 -47.705505c20.779999 -32.183228 11.394409 -119.64743 8.0425415 -145.39401c-3.3518372 -25.746613 -4.6922607 -5.2996216 -28.153625 -9.085571c-23.461365 -3.7859497 -51.61554 -12.115265 -112.61456 -13.630127c-60.999023 -1.5148621 -201.09517 1.1334534 -253.3796 4.540985c-52.284424 3.4075317 -52.283363 -12.493103 -60.326958 15.904205z" fill-rule="evenodd"/><path fill="#f1c232" d="m336.55862 315.77008c-56.977234 -6.0582275 -155.1784 -4.1661377 -207.12785 2.2705078c-51.949455 6.4366455 -96.190285 19.689545 -104.56885 36.349396c-8.378569 16.659851 16.424278 51.493805 54.297443 63.60968c37.873154 12.115875 116.29979 10.978821 172.94151 9.085541c56.64174 -1.8932495 130.37663 -8.329315 166.90883 -20.44519c36.532196 -12.115875 66.026276 -37.10504 52.284424 -52.25003c-13.741852 -15.144989 -77.75827 -32.561676 -134.7355 -38.619904z" fill-rule="evenodd"/><path stroke="#f1c232" stroke-width="4.0" stroke-linejoin="round" stroke-linecap="butt" d="m336.55862 315.77008c-56.977234 -6.0582275 -155.1784 -4.1661377 -207.12785 2.2705078c-51.949455 6.4366455 -96.190285 19.689545 -104.56885 36.349396c-8.378569 16.659851 16.424278 51.493805 54.297443 63.60968c37.873154 12.115875 116.29979 10.978821 172.94151 9.085541c56.64174 -1.8932495 130.37663 -8.329315 166.90883 -20.44519c36.532196 -12.115875 66.026276 -37.10504 52.284424 -52.25003c-13.741852 -15.144989 -77.75827 -32.561676 -134.7355 -38.619904z" fill-rule="evenodd"/><path fill="#d0a624" d="m385.7038 172.97038c-5.7994385 22.012085 -5.5579224 94.50432 8.699158 119.7444c14.25705 25.240082 38.66275 26.413391 76.84323 31.696075c38.18048 5.2826843 112.85043 6.163147 152.23965 0c39.38922 -6.1631165 69.11322 -12.031982 84.09558 -36.97873c14.982361 -24.946777 8.215332 -92.744385 5.798645 -112.70178c-2.416687 -19.957397 -3.3831177 -4.1079865 -20.298767 -7.0426483c-16.91565 -2.9346619 -37.214783 -9.391113 -81.19507 -10.565353c-43.980286 -1.1742401 -144.98962 0.8785858 -182.6867 3.519928c-37.697052 2.6413422 -37.69629 -9.683975 -43.495728 12.32811z" fill-rule="evenodd"/><path fill="#f1c232" d="m612.7211 132.46991c-41.080627 -4.6960297 -111.88367 -3.2293854 -149.3392 1.759964c-37.455566 4.9893494 -69.35321 15.262299 -75.394135 28.176132c-6.0409546 12.913834 11.841888 39.915268 39.148438 49.306854c27.30655 9.391586 83.85217 8.510208 124.69086 7.0426483c40.838684 -1.4675751 94.001526 -6.4564514 120.34125 -15.848038c26.339722 -9.391586 47.60492 -28.761871 37.697083 -40.501465c-9.907898 -11.7395935 -56.06372 -25.240082 -97.14429 -29.936096z" fill-rule="evenodd"/><path stroke="#f1c232" stroke-width="4.0" stroke-linejoin="round" stroke-linecap="butt" d="m612.7211 132.46991c-41.080627 -4.6960297 -111.88367 -3.2293854 -149.3392 1.759964c-37.455566 4.9893494 -69.35321 15.262299 -75.394135 28.176132c-6.0409546 12.913834 11.841888 39.915268 39.148438 49.306854c27.30655 9.391586 83.85217 8.510208 124.69086 7.0426483c40.838684 -1.4675751 94.001526 -6.4564514 120.34125 -15.848038c26.339722 -9.391586 47.60492 -28.761871 37.697083 -40.501465c-9.907898 -11.7395935 -56.06372 -25.240082 -97.14429 -29.936096z" fill-rule="evenodd"/><path fill="#d0a624" d="m716.1397 40.320057c5.7993774 20.474453 5.5578613 87.90283 -8.699158 111.37979c-14.25708 23.47696 -38.66278 24.568314 -76.84326 29.48198c-38.18048 4.913666 -112.850464 5.732605 -152.23965 0c-39.38922 -5.732605 -69.11319 -11.191513 -84.09558 -34.39563c-14.982361 -23.204132 -8.215363 -86.265816 -5.7986755 -104.82912c2.416687 -18.5633 3.3831482 -3.8210182 20.298798 -6.5506897c16.915619 -2.7296677 37.214783 -8.735111 81.1951 -9.827322c43.980286 -1.0922127 144.98962 0.8172188 182.68665 3.2740498c37.697083 2.456831 37.69635 -9.007519 43.49579 11.466938z" fill-rule="evenodd"/><path fill="#f1c232" d="m489.95813 2.6482234c41.080566 -4.367987 111.883606 -3.0037994 149.33917 1.6370254c37.455566 4.6408253 69.35321 14.196174 75.394165 26.207924c6.0408936 12.011749 -11.841919 37.12703 -39.1485 45.86257c-27.306519 8.735542 -83.85211 7.915741 -124.690796 6.5506897c-40.838715 -1.3650513 -94.00156 -6.0054474 -120.34128 -14.74099c-26.339722 -8.735542 -47.60495 -26.752735 -37.697083 -37.67227c9.907867 -10.919537 56.06372 -23.476961 97.14432 -27.844948z" fill-rule="evenodd"/><path stroke="#f1c232" stroke-width="4.0" stroke-linejoin="round" stroke-linecap="butt" d="m489.95813 2.6482234c41.080566 -4.367987 111.883606 -3.0037994 149.33917 1.6370254c37.455566 4.6408253 69.35321 14.196174 75.394165 26.207924c6.0408936 12.011749 -11.841919 37.12703 -39.1485 45.86257c-27.306519 8.735542 -83.85211 7.915741 -124.690796 6.5506897c-40.838715 -1.3650513 -94.00156 -6.0054474 -120.34128 -14.74099c-26.339722 -8.735542 -47.60495 -26.752735 -37.697083 -37.67227c9.907867 -10.919537 56.06372 -23.476961 97.14432 -27.844948z" fill-rule="evenodd"/></g></svg>